<svg xmlns="http://www.w3.org/2000/svg" width="1280" height="1280" viewBox="0 0 1280 1280" version="1.1"><path d="M 468.250 587.426 C 466.462 588.239, 464.973 589.038, 464.939 589.202 C 464.906 589.366, 464.644 592.206, 464.359 595.513 C 463.914 600.662, 464.154 601.926, 466.033 604.315 C 467.240 605.850, 468.478 606.856, 468.783 606.550 C 469.088 606.245, 470.080 606.667, 470.987 607.488 C 472.184 608.572, 476.180 609.146, 485.568 609.585 C 492.681 609.917, 501.875 610.584, 506 611.067 C 516.003 612.238, 540.023 614.819, 547.500 615.526 C 550.800 615.838, 559.125 616.737, 566 617.524 C 582.863 619.454, 595.276 620.822, 602.500 621.548 C 605.800 621.880, 610.525 622.843, 613 623.688 C 622.164 626.819, 675.478 626.338, 679.393 623.089 C 680.032 622.559, 685.942 621.930, 692.527 621.692 C 699.112 621.454, 709 620.758, 714.500 620.146 C 720 619.533, 742.950 617.677, 765.500 616.021 C 788.050 614.365, 811.286 612.525, 817.135 611.932 C 822.984 611.340, 834.352 610.532, 842.398 610.136 C 859.566 609.292, 860.896 608.605, 861.998 600.015 C 862.741 594.224, 861.775 591.640, 857.753 588.654 L 855.007 586.614 835.253 587.814 C 794.874 590.266, 783.148 591.095, 769 592.502 C 761.025 593.295, 748.430 594.217, 741.010 594.551 C 733.591 594.884, 727.265 595.570, 726.953 596.075 C 726.304 597.125, 696.336 599.352, 658.841 601.135 C 638.674 602.094, 630.540 602.094, 620.841 601.138 C 614.053 600.468, 603.775 599.478, 598 598.936 C 592.225 598.395, 585.475 597.308, 583 596.521 C 580.525 595.734, 572.650 594.634, 565.500 594.076 C 558.350 593.519, 548.900 592.621, 544.500 592.080 C 540.100 591.539, 531.100 590.576, 524.500 589.940 C 517.900 589.304, 509.350 588.422, 505.500 587.979 C 501.650 587.537, 492.425 586.899, 485 586.562 C 474.227 586.073, 470.844 586.247, 468.250 587.426" stroke="none" fill="#8842a0" fill-rule="evenodd"/><path d="M 642.052 362.100 C 636.420 375.193, 625.558 388.652, 612 399.341 C 584.823 420.765, 576.618 430.648, 572.993 446.320 C 571.809 451.438, 571.853 453, 573.357 459.266 C 576.087 470.640, 583.284 478.212, 596.028 483.116 C 602.529 485.618, 621.308 486.750, 630 485.165 C 650.864 481.359, 666.419 473.704, 679.011 461.045 C 689.521 450.478, 696.785 437.982, 699.672 425.500 C 700.435 422.200, 701.301 418.712, 701.597 417.750 C 701.983 416.493, 701.579 416, 700.162 416 C 698.870 416, 697.242 417.618, 695.441 420.691 C 691.346 427.679, 676.467 441.921, 668.440 446.537 C 655.380 454.047, 649.835 455.970, 639.038 456.733 C 627.527 457.546, 618.297 453.191, 614.942 445.364 C 613.874 442.873, 613 439.801, 613 438.539 C 613 434.010, 617.672 424.344, 624.861 414 C 627.345 410.425, 630.458 405.925, 631.779 404 C 634.741 399.683, 642.994 382.669, 643.015 380.839 C 643.023 380.102, 643.679 377.700, 644.471 375.500 C 646.042 371.140, 646.540 357, 645.123 357 C 644.641 357, 643.259 359.295, 642.052 362.100 M 453.500 470.432 C 445.813 472.083, 441.634 474.313, 436.370 479.577 C 430.208 485.739, 427.882 490.963, 427.260 500.036 C 426.796 506.811, 427.033 508.382, 429.240 513.118 C 433.036 521.267, 440.681 528.386, 446.991 529.648 C 450.497 530.349, 450.158 532.048, 450.413 512.500 C 450.621 496.602, 451.558 492.792, 456.511 487.691 C 462.567 481.456, 467.436 479.982, 485.500 478.915 C 494.300 478.396, 502.136 477.738, 502.913 477.454 C 503.691 477.170, 512.466 476.503, 522.413 475.971 C 543.036 474.870, 546.734 474.334, 545.086 472.686 C 544.027 471.627, 533.680 471.156, 478.500 469.660 C 465.010 469.294, 457.760 469.518, 453.500 470.432 M 469.984 502.818 C 467.702 504.010, 465.673 506.282, 464.101 509.407 L 461.703 514.176 463.621 518.804 C 464.889 521.864, 466.888 524.362, 469.519 526.175 C 473.870 529.173, 477.295 529.680, 512.500 532.543 C 521.850 533.303, 537.825 534.599, 548 535.423 C 558.175 536.248, 568.075 537.185, 570 537.505 C 571.925 537.826, 582.500 538.763, 593.500 539.587 C 604.500 540.411, 619.290 541.555, 626.367 542.130 C 635.432 542.866, 644.591 542.855, 657.367 542.090 C 667.340 541.494, 686.525 540.356, 700 539.562 C 713.475 538.768, 729.225 537.640, 735 537.055 C 740.775 536.470, 754.275 535.532, 765 534.971 C 791.250 533.598, 828.985 531.266, 842.658 530.171 C 859.081 528.855, 863 525.834, 863 514.487 C 863 509.858, 862.578 508.637, 860.103 506.106 C 855.525 501.422, 851.333 500.649, 837.483 501.938 C 830.892 502.551, 816.050 503.485, 804.500 504.015 C 792.950 504.545, 781.025 505.186, 778 505.441 C 774.975 505.696, 760.575 506.564, 746 507.371 C 731.425 508.178, 712.975 509.322, 705 509.913 C 664.729 512.900, 656.234 513.356, 641 513.350 C 625.742 513.344, 616.896 512.792, 586 509.919 C 574.936 508.890, 560.074 507.741, 516 504.508 C 504.725 503.681, 491.675 502.582, 487 502.065 C 474.970 500.736, 473.883 500.784, 469.984 502.818 M 470.415 545.420 C 463.721 548.338, 460.663 555.643, 463.560 561.800 C 467.290 569.729, 471.391 571.431, 490.500 572.984 C 517.083 575.144, 526.840 576.055, 534 577.045 C 541.023 578.017, 556.470 579.484, 586 581.986 C 592.875 582.569, 601.121 583.510, 604.324 584.077 C 620.254 586.900, 665.862 586.878, 685.469 584.039 C 689.336 583.479, 701.275 582.548, 712 581.970 C 746.293 580.124, 775.172 578.240, 787 577.079 C 797.675 576.031, 813.595 574.889, 842.043 573.132 C 851.546 572.545, 854.243 572.013, 857.306 570.120 C 862.089 567.164, 863 565.336, 863 558.701 C 863 554.704, 862.447 552.567, 860.908 550.610 C 857.952 546.852, 852.392 544.711, 847.500 545.447 C 845.300 545.778, 832.700 546.687, 819.500 547.467 C 794.183 548.963, 772.656 550.366, 749.500 552.029 C 741.800 552.582, 726.050 553.459, 714.500 553.977 C 702.950 554.496, 690.575 555.461, 687 556.123 C 677.735 557.839, 614.528 557.927, 606.500 556.236 C 603.200 555.541, 594.200 554.532, 586.500 553.994 C 578.800 553.456, 568 552.575, 562.500 552.036 C 547.493 550.566, 530.396 549.052, 512 547.566 C 502.925 546.833, 494.825 545.993, 494 545.699 C 490.123 544.321, 473.392 544.123, 470.415 545.420 M 469.618 585.810 C 469.343 586.255, 471.903 586.447, 475.309 586.237 C 484.013 585.700, 484.697 585.172, 476.809 585.079 C 473.129 585.036, 469.893 585.364, 469.618 585.810 M 442 597.161 C 436.842 600.136, 432.587 604.534, 430.154 609.407 C 427.092 615.537, 427.097 627.752, 430.162 632.882 C 433.334 638.191, 435.964 640.937, 440.946 644.141 C 446.019 647.403, 449.581 647.832, 450.157 645.250 C 450.372 644.288, 450.383 632.587, 450.181 619.250 L 449.816 595 447.658 595.071 C 446.471 595.110, 443.925 596.050, 442 597.161 M 591.500 597.999 C 605.589 600.131, 629.370 602.002, 640.500 601.854 L 652.500 601.694 634.678 600.914 C 624.876 600.486, 614.701 599.673, 612.068 599.108 C 609.435 598.543, 602.380 597.858, 596.390 597.586 C 587.435 597.179, 586.566 597.252, 591.500 597.999 M 688.116 598.104 C 681.855 598.554, 676.230 599.129, 675.616 599.382 C 673.575 600.223, 687.290 599.818, 704 598.544 L 720.500 597.286 710 597.286 C 704.225 597.286, 694.377 597.654, 688.116 598.104 M 661.250 600.728 C 663.313 600.944, 666.688 600.944, 668.750 600.728 C 670.813 600.513, 669.125 600.336, 665 600.336 C 660.875 600.336, 659.188 600.513, 661.250 600.728 M 493.500 610.910 C 499.396 612.157, 517.173 613.138, 513.652 612.023 C 512.086 611.527, 506.011 610.883, 500.152 610.593 C 493.126 610.244, 490.862 610.352, 493.500 610.910 M 825.500 611.116 C 810.629 612.514, 811.604 612.883, 828.672 612.316 C 846.766 611.715, 857.333 610.182, 843 610.238 C 838.325 610.256, 830.450 610.651, 825.500 611.116 M 521.261 613.947 C 522.779 614.434, 529.079 615.071, 535.261 615.362 C 543.513 615.751, 544.905 615.670, 540.500 615.060 C 530.431 613.665, 518.174 612.956, 521.261 613.947 M 785 614.575 L 771.500 615.846 787.500 615.331 C 804.350 614.790, 817.887 613.193, 805 613.267 C 801.425 613.288, 792.425 613.876, 785 614.575 M 547.778 616.178 C 548.221 616.621, 554.865 617.656, 562.542 618.477 C 570.219 619.298, 579.875 620.417, 584 620.964 C 594.035 622.294, 610.626 623.411, 609.994 622.713 C 609.716 622.406, 604.766 621.682, 598.994 621.104 C 583.926 619.595, 571.133 618.211, 558.235 616.695 C 552.040 615.967, 547.334 615.734, 547.778 616.178 M 758.500 616.517 C 757.950 616.715, 746.250 617.636, 732.500 618.565 C 718.750 619.493, 706.600 620.649, 705.500 621.133 C 704.187 621.711, 705.734 621.869, 710 621.594 C 747.935 619.145, 777.374 616.284, 765.500 616.200 C 762.200 616.177, 759.050 616.320, 758.500 616.517 M 684.750 622.737 C 687.638 622.939, 692.362 622.939, 695.250 622.737 C 698.138 622.535, 695.775 622.370, 690 622.370 C 684.225 622.370, 681.862 622.535, 684.750 622.737 M 469.055 624.752 C 462.770 627.941, 460.444 635.014, 463.614 641.300 C 465.117 644.280, 469.555 648.978, 470.906 649.017 C 471.232 649.027, 474.425 649.653, 478 650.410 C 481.575 651.166, 488.550 652.078, 493.500 652.435 C 498.450 652.793, 504.300 653.518, 506.500 654.046 C 508.700 654.573, 515.225 655.449, 521 655.991 C 526.775 656.534, 539.150 657.894, 548.500 659.014 C 557.850 660.134, 570.450 661.518, 576.500 662.090 C 582.550 662.662, 589.075 663.568, 591 664.104 C 592.925 664.639, 599.225 665.503, 605 666.023 C 610.775 666.543, 617.975 667.393, 621 667.911 C 628.025 669.115, 655.077 669.135, 665.500 667.943 C 669.900 667.440, 680.700 666.584, 689.500 666.042 C 698.300 665.499, 708.200 664.605, 711.500 664.054 C 714.800 663.503, 724.700 662.610, 733.500 662.069 C 760.127 660.434, 788.118 658.168, 795 657.090 C 798.575 656.530, 808.925 655.578, 818 654.974 C 854.057 652.577, 855.738 652.261, 860.502 646.997 C 863.327 643.877, 863.358 633.159, 860.553 630.058 C 857.398 626.572, 852.479 624.704, 848.258 625.389 C 846.191 625.724, 837.525 626.428, 829 626.953 C 820.475 627.478, 809.675 628.379, 805 628.955 C 800.325 629.531, 788.850 630.451, 779.500 631 C 770.150 631.550, 759.350 632.440, 755.500 632.979 C 748.865 633.908, 735.599 634.886, 701.500 636.959 C 693.250 637.460, 681.550 638.461, 675.500 639.183 C 661.250 640.884, 622.649 640.915, 614 639.233 C 610.425 638.537, 602.550 637.540, 596.500 637.017 C 584.028 635.938, 571.503 634.559, 555.500 632.504 C 549.450 631.727, 539.775 630.579, 534 629.952 C 517.676 628.182, 500.626 626.212, 487.500 624.579 C 472.327 622.693, 473.126 622.685, 469.055 624.752 M 470.770 663.736 C 469.154 663.969, 466.806 665.625, 465.020 667.792 C 462.518 670.827, 462 672.347, 462 676.647 C 462 686.132, 467.367 691.565, 478.193 693.038 C 481.662 693.510, 485.400 694.143, 486.500 694.445 C 487.600 694.746, 492.550 695.435, 497.500 695.975 C 502.450 696.515, 513.475 697.875, 522 698.998 C 530.525 700.120, 542.900 701.659, 549.500 702.417 C 556.100 703.176, 562.175 704.066, 563 704.395 C 563.825 704.725, 569 705.439, 574.500 705.982 C 580 706.524, 587.425 707.406, 591 707.941 C 597.956 708.981, 609.558 710.531, 622.500 712.149 C 631.459 713.270, 670.214 712.490, 676.500 711.063 C 678.700 710.564, 688.070 709.630, 697.322 708.987 C 706.575 708.345, 715.572 707.410, 717.316 706.909 C 719.060 706.409, 723.865 705.972, 727.993 705.938 C 732.122 705.904, 738.875 705.450, 743 704.930 C 747.125 704.409, 758.150 703.341, 767.500 702.557 C 806.526 699.284, 819.873 698.046, 826.500 697.086 C 830.350 696.528, 837.570 695.842, 842.545 695.561 C 857.176 694.736, 862.148 691.038, 862.820 680.483 L 863.231 674.031 859.716 670.516 L 856.200 667 845.850 667.049 C 840.157 667.075, 831.225 667.484, 826 667.957 C 820.775 668.431, 810.200 669.329, 802.500 669.954 C 794.800 670.579, 784.225 671.533, 779 672.075 C 773.775 672.617, 762.300 673.489, 753.500 674.014 C 744.700 674.538, 735.925 675.402, 734 675.934 C 732.075 676.466, 723.750 677.169, 715.500 677.496 C 707.250 677.823, 697.350 678.510, 693.500 679.023 C 689.650 679.535, 679.075 680.422, 670 680.993 C 660.925 681.565, 650.877 682.540, 647.671 683.161 C 643.279 684.013, 640.199 683.999, 635.171 683.107 C 631.502 682.456, 622.425 681.214, 615 680.347 C 589.424 677.363, 578.472 676.107, 568.500 675.017 C 563 674.415, 554.450 673.290, 549.500 672.517 C 540.493 671.109, 531.114 669.897, 510.500 667.478 C 504.450 666.767, 496.350 665.729, 492.500 665.169 C 483.411 663.848, 474.205 663.241, 470.770 663.736 M 468.021 707.080 C 464.474 708.547, 462.064 710.958, 459.894 715.210 C 457.255 720.380, 457.536 725.570, 460.773 731.462 C 464.078 737.475, 469.920 741.703, 476 742.480 C 478.475 742.797, 482.750 743.512, 485.500 744.071 C 488.250 744.629, 494.325 745.493, 499 745.990 C 507.376 746.881, 515.751 748.017, 529.500 750.128 C 533.350 750.719, 541.225 751.804, 547 752.539 C 557.520 753.877, 566.510 755.100, 594.500 758.997 C 618.156 762.291, 635.199 764.330, 639 764.322 C 640.925 764.317, 650.375 763.569, 660 762.658 C 669.625 761.748, 682.450 760.537, 688.500 759.967 C 694.550 759.398, 705.350 758.282, 712.500 757.487 C 726.733 755.905, 740.756 754.518, 763 752.489 C 793.884 749.672, 810.755 747.974, 817 747.051 C 820.575 746.524, 828 745.823, 833.500 745.495 C 856.313 744.133, 863.447 740.574, 866.491 729.035 C 868.487 721.468, 866.445 715.064, 860.703 710.885 C 856.760 708.015, 856.068 707.854, 849.500 708.276 C 841.552 708.787, 821.860 710.610, 808.500 712.071 C 803.550 712.613, 792.975 713.493, 785 714.028 C 777.025 714.563, 769.466 715.451, 768.203 716.001 C 766.940 716.550, 762.665 717.028, 758.703 717.063 C 754.741 717.098, 747.675 717.531, 743 718.027 C 738.325 718.523, 726.175 719.617, 716 720.458 C 705.825 721.299, 694.800 722.418, 691.500 722.944 C 688.200 723.470, 680.230 724.165, 673.789 724.489 C 667.348 724.812, 660.768 725.533, 659.168 726.091 C 653.479 728.074, 623.893 726.377, 604.862 722.975 C 599.621 722.039, 591.549 720.968, 563.500 717.487 C 542.503 714.881, 535.469 713.929, 529.613 712.899 C 526.375 712.330, 518.500 711.223, 512.113 710.438 C 505.726 709.653, 497.575 708.605, 494 708.110 C 482.263 706.482, 470.585 706.019, 468.021 707.080" stroke="none" fill="#f9f6dd" fill-rule="evenodd"/></svg>